<svg xmlns="http://www.w3.org/2000/svg" version="1.1" xmlns:xlink="http://www.w3.org/1999/xlink" width="1000" height="1000"><g clip-path="url(#SvgjsClipPath1118)"><rect width="1000" height="1000" fill="#130c0c"></rect><g transform="matrix(3.90625,0,0,3.90625,0,0)"><svg xmlns="http://www.w3.org/2000/svg" version="1.1" xmlns:xlink="http://www.w3.org/1999/xlink" width="256" height="256"><svg width="256" height="256" viewBox="0 0 256 256" fill="none" xmlns="http://www.w3.org/2000/svg">
  <rect width="256" height="256" rx="64" fill="#1A1A2E"></rect> <!-- Latar belakang gelap dengan sudut membulat -->

  <!-- Bentuk AI yang lebih abstrak dan dinamis -->
  <path d="M128 64 L192 96 L192 160 L128 192 L64 160 L64 96 Z" fill="url(#mainGradient)" opacity="0.8"></path>
  <path d="M128 72 L184 100 L184 156 L128 184 L72 156 L72 100 Z" fill="url(#innerGradient)" opacity="0.9"></path>

  <!-- Garis-garis sirkuit/energi -->
  <line x1="128" y1="64" x2="128" y2="192" stroke="#00BCD4" stroke-width="4" stroke-linecap="round" opacity="0.6"></line>
  <line x1="64" y1="96" x2="192" y2="160" stroke="#00BCD4" stroke-width="4" stroke-linecap="round" opacity="0.6"></line>
  <line x1="64" y1="160" x2="192" y2="96" stroke="#00BCD4" stroke-width="4" stroke-linecap="round" opacity="0.6"></line>

  <!-- Teks "Rell AI" -->
  <text x="128" y="135" font-family="Orbitron, sans-serif" font-weight="700" font-size="44" text-anchor="middle" fill="#E0E0E0">Rell</text>
  <text x="128" y="175" font-family="Orbitron, sans-serif" font-weight="400" font-size="28" text-anchor="middle" fill="#00E676">AI</text>

  <!-- Gradien untuk bentuk AI -->
  <defs>
    <linearGradient id="mainGradient" x1="128" y1="64" x2="128" y2="192" gradientUnits="userSpaceOnUse">
      <stop stop-color="#00BCD4"></stop> <!-- primary-blue -->
      <stop offset="1" stop-color="#8E24AA"></stop> <!-- secondary-purple -->
    </linearGradient>
    <linearGradient id="innerGradient" x1="128" y1="72" x2="128" y2="184" gradientUnits="userSpaceOnUse">
      <stop stop-color="#00E676"></stop> <!-- accent-green -->
      <stop offset="1" stop-color="#00BCD4"></stop> <!-- primary-blue -->
    </linearGradient>
  <clipPath id="SvgjsClipPath1118"><rect width="1000" height="1000" x="0" y="0" rx="300" ry="300"></rect></clipPath></defs>
</svg></svg></g></g></svg>